<svg width="44" height="44" viewBox="0 0 44 44" fill="none" xmlns="http://www.w3.org/2000/svg">
<path d="M44 22C44 34.1503 34.1503 44 22 44C9.84974 44 0 34.1503 0 22C0 9.84974 9.84974 0 22 0C34.1503 0 44 9.84974 44 22Z" fill="#3CA2FF"/>
<path d="M21.9994 12.7837C22.305 12.7837 22.598 12.9051 22.814 13.1211C23.0301 13.3372 23.1514 13.6302 23.1514 13.9357V20.8479H30.0636C30.3691 20.8479 30.6622 20.9693 30.8782 21.1853C31.0943 21.4014 31.2156 21.6944 31.2156 21.9999C31.2156 22.3054 31.0943 22.5985 30.8782 22.8145C30.6622 23.0306 30.3691 23.1519 30.0636 23.1519H23.1514V30.0641C23.1514 30.3696 23.0301 30.6627 22.814 30.8787C22.598 31.0948 22.305 31.2161 21.9994 31.2161C21.6939 31.2161 21.4009 31.0948 21.1848 30.8787C20.9688 30.6627 20.8474 30.3696 20.8474 30.0641V23.1519H13.9352C13.6297 23.1519 13.3367 23.0306 13.1206 22.8145C12.9046 22.5985 12.7832 22.3054 12.7832 21.9999C12.7832 21.6944 12.9046 21.4014 13.1206 21.1853C13.3367 20.9693 13.6297 20.8479 13.9352 20.8479H20.8474V13.9357C20.8474 13.6302 20.9688 13.3372 21.1848 13.1211C21.4009 12.9051 21.6939 12.7837 21.9994 12.7837Z" fill="white"/>
</svg>
