<svg width="50" height="50" viewBox="0 0 50 50" fill="none" xmlns="http://www.w3.org/2000/svg">
<g clip-path="url(#clip0_562_1292)">
<path d="M19.7917 31.25H7.29167C7.0154 31.25 6.75045 31.1403 6.5551 30.9449C6.35975 30.7496 6.25 30.4846 6.25 30.2083C6.25 29.9321 6.35975 29.6671 6.5551 29.4718C6.75045 29.2764 7.0154 29.1667 7.29167 29.1667H19.7917C20.0679 29.1667 20.3329 29.2764 20.5282 29.4718C20.7236 29.6671 20.8333 29.9321 20.8333 30.2083C20.8333 30.4846 20.7236 30.7496 20.5282 30.9449C20.3329 31.1403 20.0679 31.25 19.7917 31.25ZM17.7083 37.5H7.29167C7.0154 37.5 6.75045 37.3903 6.5551 37.1949C6.35975 36.9996 6.25 36.7346 6.25 36.4583C6.25 36.1821 6.35975 35.9171 6.5551 35.7218C6.75045 35.5264 7.0154 35.4167 7.29167 35.4167H17.7083C17.9846 35.4167 18.2496 35.5264 18.4449 35.7218C18.6403 35.9171 18.75 36.1821 18.75 36.4583C18.75 36.7346 18.6403 36.9996 18.4449 37.1949C18.2496 37.3903 17.9846 37.5 17.7083 37.5ZM17.7083 14.5833C15.4104 14.5833 13.5417 12.7146 13.5417 10.4167C13.5417 8.11875 15.4104 6.25 17.7083 6.25C20.0062 6.25 21.875 8.11875 21.875 10.4167C21.875 12.7146 20.0062 14.5833 17.7083 14.5833ZM17.7083 8.33333C16.5604 8.33333 15.625 9.26875 15.625 10.4167C15.625 11.5646 16.5604 12.5 17.7083 12.5C18.8562 12.5 19.7917 11.5646 19.7917 10.4167C19.7917 9.26875 18.8562 8.33333 17.7083 8.33333ZM25 25C24.7237 25 24.4588 24.8903 24.2634 24.6949C24.0681 24.4996 23.9583 24.2346 23.9583 23.9583V21.875C23.9583 20.1521 22.5562 18.75 20.8333 18.75H14.5833C12.8604 18.75 11.4583 20.1521 11.4583 21.875V23.9583C11.4583 24.2346 11.3486 24.4996 11.1532 24.6949C10.9579 24.8903 10.6929 25 10.4167 25C10.1404 25 9.87545 24.8903 9.6801 24.6949C9.48475 24.4996 9.375 24.2346 9.375 23.9583V21.875C9.375 19.0042 11.7125 16.6667 14.5833 16.6667H20.8333C23.7042 16.6667 26.0417 19.0042 26.0417 21.875V23.9583C26.0417 24.2346 25.9319 24.4996 25.7366 24.6949C25.5412 24.8903 25.2763 25 25 25Z" fill="#3CA2FF"/>
<path d="M19.7917 43.75H5.20833C3.82751 43.7483 2.50371 43.1991 1.52731 42.2227C0.550919 41.2463 0.00165402 39.9225 0 38.5417L0 5.20833C0 2.3375 2.3375 0 5.20833 0H30.2083C33.0792 0 35.4167 2.3375 35.4167 5.20833V17.8333C35.4167 18.1096 35.3069 18.3746 35.1116 18.5699C34.9162 18.7653 34.6513 18.875 34.375 18.875C34.0987 18.875 33.8338 18.7653 33.6384 18.5699C33.4431 18.3746 33.3333 18.1096 33.3333 17.8333V5.20833C33.3333 3.48542 31.9313 2.08333 30.2083 2.08333H5.20833C3.48542 2.08333 2.08333 3.48542 2.08333 5.20833V38.5417C2.08333 40.2646 3.48542 41.6667 5.20833 41.6667H19.7917C20.0679 41.6667 20.3329 41.7764 20.5282 41.9718C20.7236 42.1671 20.8333 42.4321 20.8333 42.7083C20.8333 42.9846 20.7236 43.2495 20.5282 43.4449C20.3329 43.6403 20.0679 43.75 19.7917 43.75Z" fill="#3CA2FF"/>
<path d="M36.4577 50.0013C28.991 50.0013 22.916 43.9263 22.916 36.4596C22.916 28.993 28.991 22.918 36.4577 22.918C43.9244 22.918 49.9994 28.993 49.9994 36.4596C49.9994 43.9263 43.9244 50.0013 36.4577 50.0013ZM36.4577 25.0013C30.1389 25.0013 24.9993 30.1409 24.9993 36.4596C24.9993 42.7784 30.1389 47.918 36.4577 47.918C42.7764 47.918 47.916 42.7784 47.916 36.4596C47.916 30.1409 42.7764 25.0013 36.4577 25.0013Z" fill="#3CA2FF"/>
<path d="M34.3743 41.6663C34.0981 41.6657 33.8332 41.5564 33.6368 41.3621L29.4701 37.1955C29.2804 36.999 29.1754 36.7359 29.1778 36.4628C29.1801 36.1896 29.2897 35.9284 29.4828 35.7352C29.676 35.5421 29.9372 35.4326 30.2104 35.4302C30.4835 35.4278 30.7466 35.5328 30.9431 35.7225L34.3222 39.1017L40.8806 31.6059C41.0626 31.3979 41.3199 31.2707 41.5957 31.2523C41.8715 31.2339 42.1434 31.3259 42.3514 31.508C42.5594 31.69 42.6866 31.9473 42.705 32.2231C42.7233 32.4989 42.6314 32.7708 42.4493 32.9788L35.1576 41.3121C35.0636 41.4195 34.9485 41.5063 34.8195 41.5673C34.6905 41.6282 34.5503 41.6619 34.4076 41.6663H34.3743Z" fill="#3CA2FF"/>
</g>
<defs>
<clipPath id="clip0_562_1292">
<rect width="50" height="50" fill="white"/>
</clipPath>
</defs>
</svg>
