<svg width="50" height="50" viewBox="0 0 50 50" fill="none" xmlns="http://www.w3.org/2000/svg">
<path d="M13.6504 12.6824C13.6504 12.5868 13.6316 12.4923 13.595 12.404C13.5585 12.3158 13.5049 12.2356 13.4374 12.1681C13.3698 12.1006 13.2897 12.047 13.2014 12.0104C13.1132 11.9739 13.0186 11.9551 12.9231 11.9551H5.87766C5.68478 11.9551 5.49979 12.0317 5.3634 12.1681C5.22701 12.3045 5.15039 12.4895 5.15039 12.6824V19.7278C5.15039 20.1293 5.47615 20.4551 5.87766 20.4551H12.9231C13.3246 20.4551 13.6504 20.1293 13.6504 19.7278V12.6824ZM12.1958 19.0081H6.60494V13.4172H12.1958V19.0081ZM13.6504 24.6975C13.6504 24.602 13.6316 24.5074 13.595 24.4192C13.5585 24.331 13.5049 24.2508 13.4374 24.1832C13.3698 24.1157 13.2897 24.0621 13.2014 24.0256C13.1132 23.989 13.0186 23.9702 12.9231 23.9702H5.87766C5.68478 23.9702 5.49979 24.0469 5.3634 24.1832C5.22701 24.3196 5.15039 24.5046 5.15039 24.6975V31.743C5.15039 32.1445 5.47615 32.4702 5.87766 32.4702H12.9231C13.3246 32.4702 13.6504 32.1445 13.6504 31.743V24.6975ZM12.1958 31.0233H6.60494V25.4324H12.1958V31.0233ZM12.9231 35.9854H5.87766C5.68478 35.9854 5.49979 36.062 5.3634 36.1984C5.22701 36.3348 5.15039 36.5198 5.15039 36.7127V43.7581C5.15039 44.1596 5.47615 44.4854 5.87766 44.4854H12.9231C13.3246 44.4854 13.6504 44.1596 13.6504 43.7581V36.7127C13.6504 36.6171 13.6316 36.5226 13.595 36.4343C13.5585 36.3461 13.5049 36.2659 13.4374 36.1984C13.3698 36.1309 13.2897 36.0773 13.2014 36.0407C13.1132 36.0042 13.0186 35.9854 12.9231 35.9854ZM12.1958 43.0308H6.60494V37.4399H12.1958V43.0308ZM27.1352 13.8263H16.9383C16.7454 13.8263 16.5604 13.9029 16.424 14.0393C16.2876 14.1757 16.211 14.3607 16.211 14.5536C16.211 14.7464 16.2876 14.9314 16.424 15.0678C16.5604 15.2042 16.7454 15.2808 16.9383 15.2808H27.1352C27.3281 15.2808 27.5131 15.2042 27.6495 15.0678C27.7859 14.9314 27.8625 14.7464 27.8625 14.5536C27.8625 14.3607 27.7859 14.1757 27.6495 14.0393C27.5131 13.9029 27.3281 13.8263 27.1352 13.8263ZM16.9383 18.5914H23.4686C23.6615 18.5914 23.8464 18.5148 23.9828 18.3784C24.1192 18.242 24.1958 18.0571 24.1958 17.8642C24.1958 17.6713 24.1192 17.4863 23.9828 17.3499C23.8464 17.2135 23.6615 17.1369 23.4686 17.1369H16.9383C16.7454 17.1369 16.5604 17.2135 16.424 17.3499C16.2876 17.4863 16.211 17.6713 16.211 17.8642C16.211 18.0571 16.2876 18.242 16.424 18.3784C16.5604 18.5148 16.7454 18.5914 16.9383 18.5914ZM27.8625 26.5687C27.8625 26.3758 27.7859 26.1908 27.6495 26.0545C27.5131 25.9181 27.3281 25.8414 27.1352 25.8414H16.9383C16.7454 25.8414 16.5604 25.9181 16.424 26.0545C16.2876 26.1908 16.211 26.3758 16.211 26.5687C16.211 26.7616 16.2876 26.9466 16.424 27.083C16.5604 27.2194 16.7454 27.296 16.9383 27.296H27.1352C27.5368 27.296 27.8625 26.9702 27.8625 26.5687ZM23.461 29.152H16.9307C16.7378 29.152 16.5528 29.2287 16.4164 29.3651C16.28 29.5015 16.2034 29.6864 16.2034 29.8793C16.2034 30.0722 16.28 30.2572 16.4164 30.3936C16.5528 30.53 16.7378 30.6066 16.9307 30.6066H23.461C23.6539 30.6066 23.8389 30.53 23.9753 30.3936C24.1116 30.2572 24.1883 30.0722 24.1883 29.8793C24.1883 29.6864 24.1116 29.5015 23.9753 29.3651C23.8389 29.2287 23.6539 29.152 23.461 29.152ZM23.461 37.8566H16.9307C16.7378 37.8566 16.5528 37.9332 16.4164 38.0696C16.28 38.206 16.2034 38.391 16.2034 38.5839C16.2034 38.7768 16.28 38.9617 16.4164 39.0981C16.5528 39.2345 16.7378 39.3111 16.9307 39.3111H23.461C23.6539 39.3111 23.8389 39.2345 23.9753 39.0981C24.1116 38.9617 24.1883 38.7768 24.1883 38.5839C24.1883 38.391 24.1116 38.206 23.9753 38.0696C23.8389 37.9332 23.6539 37.8566 23.461 37.8566ZM23.461 41.1596H16.9307C16.7378 41.1596 16.5528 41.2362 16.4164 41.3726C16.28 41.509 16.2034 41.694 16.2034 41.8869C16.2034 42.0798 16.28 42.2648 16.4164 42.4012C16.5528 42.5375 16.7378 42.6142 16.9307 42.6142H23.461C23.8625 42.6142 24.1883 42.2884 24.1883 41.8869C24.1895 41.7911 24.1715 41.6959 24.1354 41.6071C24.0993 41.5184 24.0458 41.4377 23.978 41.3699C23.9102 41.3021 23.8295 41.2486 23.7408 41.2125C23.652 41.1764 23.5568 41.1584 23.461 41.1596ZM48.764 17.0914C48.7101 16.5159 48.5431 15.9567 48.2727 15.4458C48.0023 14.9349 47.6338 14.4824 47.1883 14.1142C46.2792 13.3642 45.1428 13.0081 43.9686 13.1217C42.7943 13.2354 41.7413 13.796 40.9913 14.6975L27.6352 30.8263C27.5822 30.8945 27.5443 30.9702 27.514 31.0536L27.4913 31.1217L27.4686 31.1975L26.6049 38.0157C26.5746 38.2657 26.6731 38.5081 26.8625 38.6672C26.9913 38.7733 27.158 38.8339 27.3246 38.8339C27.4004 38.8339 27.4761 38.8187 27.5519 38.796L34.0898 36.6672C34.1049 36.6596 34.1201 36.652 34.1428 36.6445C34.1655 36.6369 34.1807 36.6293 34.2034 36.6142C34.2868 36.5687 34.3701 36.5157 34.4307 36.4399L47.7792 20.3111C48.5216 19.4096 48.8701 18.2657 48.764 17.0914ZM33.764 34.9551L32.0519 33.5384L43.5822 19.6066L45.2943 21.0233L33.764 34.9551ZM29.2186 31.1899L40.7489 17.2581L42.461 18.6748L30.9307 32.6066L29.2186 31.1899ZM28.7489 32.6899L32.3777 35.6899L28.1958 37.0536L28.7489 32.6899ZM46.6504 19.3869L46.2262 19.902L41.6807 16.1369L42.1049 15.6217C42.6049 15.0157 43.3171 14.6369 44.0974 14.5687C44.8852 14.493 45.6504 14.7278 46.2565 15.2354C46.8625 15.7354 47.2413 16.4475 47.3095 17.2278C47.3852 18.0157 47.1504 18.7808 46.6504 19.3869Z" fill="#3CA2FF"/>
<path d="M37.0748 35.9322C36.9793 35.9322 36.8847 35.951 36.7965 35.9875C36.7083 36.0241 36.6281 36.0777 36.5606 36.1452C36.493 36.2127 36.4394 36.2929 36.4029 36.3811C36.3664 36.4694 36.3475 36.5639 36.3475 36.6594V43.7655C36.3475 45.7731 34.7188 47.4019 32.7112 47.4019H6.30966C4.30208 47.4019 2.6733 45.7731 2.6733 43.7655V6.22763C2.6733 4.22005 4.30208 2.59126 6.30966 2.59126H27.3778V9.37914C27.3778 9.66566 27.4343 9.94938 27.5439 10.2141C27.6536 10.4788 27.8143 10.7193 28.0169 10.9219C28.2195 11.1245 28.46 11.2852 28.7247 11.3949C28.9894 11.5045 29.2731 11.561 29.5597 11.561H36.3475V16.0004C36.3475 16.1932 36.4242 16.3782 36.5606 16.5146C36.6969 16.651 36.8819 16.7276 37.0748 16.7276C37.2677 16.7276 37.4527 16.651 37.5891 16.5146C37.7255 16.3782 37.8021 16.1932 37.8021 16.0004V10.8337C37.8021 10.6443 37.7263 10.4549 37.59 10.3185L28.6203 1.34884C28.483 1.21326 28.298 1.13707 28.1051 1.13672H6.30966C3.49905 1.13672 1.21875 3.4246 1.21875 6.22763V43.7731C1.21875 46.5837 3.50663 48.864 6.30966 48.864H32.7112C35.5218 48.864 37.8021 46.5761 37.8021 43.7731V36.667C37.8021 36.2579 37.4763 35.9322 37.0748 35.9322ZM28.8324 9.37914V3.62157L35.3172 10.1064H29.5597C29.3668 10.1064 29.1818 10.0298 29.0454 9.8934C28.909 9.75701 28.8324 9.57203 28.8324 9.37914Z" fill="#3CA2FF"/>
</svg>
